<?xml version="1.0" standalone="no"?>
<!DOCTYPE svg PUBLIC "-//W3C//DTD SVG 1.1//EN" "http://www.w3.org/Graphics/SVG/1.1/DTD/svg11.dtd">
<!-- Created with WaveDrom -->
<svg xmlns="http://www.w3.org/2000/svg" xmlns:xlink="http://www.w3.org/1999/xlink" width="800" height="56" viewBox="0 0 800 56" class="WaveDrom"><g transform="translate(0.5,0.5)" text-anchor="middle" font-size="14" font-family="sans-serif" font-weight="normal"><g transform="translate(4,21)"><g stroke="black" stroke-width="1" stroke-linecap="round"><line x2="791"/><line x2="791" y1="31" y2="31"/><line y2="31"/><line x1="791" x2="791" y2="31"/><line x1="766" x2="766" y2="3"/><line x1="766" x2="766" y1="31" y2="28"/><line x1="742" x2="742" y2="3"/><line x1="742" x2="742" y1="31" y2="28"/><line x1="717" x2="717" y2="3"/><line x1="717" x2="717" y1="31" y2="28"/><line x1="692" x2="692" y2="3"/><line x1="692" x2="692" y1="31" y2="28"/><line x1="667" x2="667" y2="3"/><line x1="667" x2="667" y1="31" y2="28"/><line x1="643" x2="643" y2="3"/><line x1="643" x2="643" y1="31" y2="28"/><line x1="618" x2="618" y2="3"/><line x1="618" x2="618" y1="31" y2="28"/><line x1="593" x2="593" y2="3"/><line x1="593" x2="593" y1="31" y2="28"/><line x1="569" x2="569" y2="3"/><line x1="569" x2="569" y1="31" y2="28"/><line x1="544" x2="544" y2="3"/><line x1="544" x2="544" y1="31" y2="28"/><line x1="519" x2="519" y2="3"/><line x1="519" x2="519" y1="31" y2="28"/><line x1="494" x2="494" y2="3"/><line x1="494" x2="494" y1="31" y2="28"/><line x1="470" x2="470" y2="3"/><line x1="470" x2="470" y1="31" y2="28"/><line x1="445" x2="445" y2="3"/><line x1="445" x2="445" y1="31" y2="28"/><line x1="420" x2="420" y2="3"/><line x1="420" x2="420" y1="31" y2="28"/><line x1="396" x2="396" y2="3"/><line x1="396" x2="396" y1="31" y2="28"/><line x1="371" x2="371" y2="3"/><line x1="371" x2="371" y1="31" y2="28"/><line x1="346" x2="346" y2="3"/><line x1="346" x2="346" y1="31" y2="28"/><line x1="321" x2="321" y2="3"/><line x1="321" x2="321" y1="31" y2="28"/><line x1="297" x2="297" y2="3"/><line x1="297" x2="297" y1="31" y2="28"/><line x1="272" x2="272" y2="3"/><line x1="272" x2="272" y1="31" y2="28"/><line x1="247" x2="247" y2="31"/><line x1="222" x2="222" y2="3"/><line x1="222" x2="222" y1="31" y2="28"/><line x1="198" x2="198" y2="3"/><line x1="198" x2="198" y1="31" y2="28"/><line x1="173" x2="173" y2="3"/><line x1="173" x2="173" y1="31" y2="28"/><line x1="148" x2="148" y2="3"/><line x1="148" x2="148" y1="31" y2="28"/><line x1="124" x2="124" y2="3"/><line x1="124" x2="124" y1="31" y2="28"/><line x1="99" x2="99" y2="3"/><line x1="99" x2="99" y1="31" y2="28"/><line x1="74" x2="74" y2="3"/><line x1="74" x2="74" y1="31" y2="28"/><line x1="49" x2="49" y2="31"/><line x1="25" x2="25" y2="31"/></g><g><g/><g transform="translate(12,-11)"><g transform="translate(766)"><text y="6">0</text></g><g transform="translate(247)"><text y="6">21</text></g><g transform="translate(222)"><text y="6">22</text></g><g transform="translate(49)"><text y="6">29</text></g><g transform="translate(25)"><text y="6">30</text></g><g transform="translate(0)"><text y="6">31</text></g></g><g transform="translate(12,15)"><g transform="translate(507)"><text y="6"><tspan>addr</tspan></text></g><g transform="translate(136)"><text y="6"><tspan>region</tspan></text></g><g transform="translate(25)"><text y="6"><tspan>r</tspan></text></g><g transform="translate(0)"><text y="6"><tspan>w</tspan></text></g></g><g transform="translate(12,39)"/></g></g></g></svg>